<svg width="24" height="24" viewBox="0 0 24 24" fill="none" xmlns="http://www.w3.org/2000/svg">
<path d="M16.5222 21C9.06621 21 3 14.9338 3 7.47779C3 4.83908 4.97387 2.59759 7.59004 2.26235C8.25582 2.17596 8.90094 2.5497 9.15824 3.16946L11.0429 7.56606C11.241 8.02243 11.1988 8.54924 10.9293 8.97087L9.3592 11.3589C10.056 12.7946 11.2307 13.9675 12.6693 14.6586L15.016 13.0867C15.4386 12.8003 15.9757 12.7505 16.448 12.9571L20.8381 14.8427C21.4503 15.0972 21.8231 15.7423 21.7377 16.4081C21.4024 19.0243 19.1609 20.9972 16.5231 20.9981L16.5222 21ZM7.77409 3.75355C5.90821 3.99582 4.50247 5.59595 4.50247 7.47779C4.50247 14.1056 9.89445 19.4975 16.5222 19.4975C18.4041 19.4975 20.0032 18.0908 20.2465 16.2259L15.8508 14.3384L13.5032 15.9066C13.0684 16.2006 12.5003 16.2438 12.0223 16.0174C10.2738 15.1761 8.8493 13.7553 8.0051 12.0124L8.00322 12.0096C7.77973 11.542 7.81541 10.9804 8.09712 10.5447L9.66814 8.15484L7.77503 3.75449L7.77409 3.75355Z" fill="black"/>
</svg>
