<svg width="14" height="15" viewBox="0 0 14 15" fill="none" xmlns="http://www.w3.org/2000/svg">
<path fill-rule="evenodd" clip-rule="evenodd" d="M0.53217 0.53033C0.825063 0.237437 1.29994 0.237437 1.59283 0.53033L13.2601 12.1976C13.553 12.4905 13.553 12.9654 13.2601 13.2583C12.9672 13.5511 12.4923 13.5511 12.1994 13.2583L0.53217 1.59099C0.239277 1.2981 0.239277 0.823223 0.53217 0.53033Z" fill="black"/>
<path fill-rule="evenodd" clip-rule="evenodd" d="M13.2587 0.883977C13.5516 1.17687 13.5516 1.65174 13.2587 1.94464L1.59147 13.6119C1.29858 13.9048 0.823703 13.9048 0.53081 13.6119C0.237916 13.319 0.237917 12.8441 0.53081 12.5512L12.1981 0.883976C12.491 0.591083 12.9658 0.591083 13.2587 0.883977Z" fill="black"/>
</svg>
