<svg width="106" height="33" viewBox="0 0 106 33" fill="none" xmlns="http://www.w3.org/2000/svg">
<path d="M52.1934 10H63.7151V12.4H54.4977V19.6H63.7151V22H52.1934V10Z" fill="#282828"/>
<path d="M71.7803 22V19.6H74.0127L71.7803 13.6L68.6478 22H66.0194L70.6281 10H72.9325L77.5412 22H71.7803Z" fill="#282828"/>
<path d="M79.8455 10H91.3673V12.4H82.1499V19.6H91.3673V22H79.8455V10Z" fill="#282828"/>
<path d="M105.193 22H93.6716V10H105.193V12.4H95.976V19.6H102.889V17.2H100.585V14.8H105.193V22Z" fill="#282828"/>
<rect y="11.3547" width="13.1963" height="29.8351" transform="rotate(-45 0 11.3547)" fill="#2A8C68"/>
<rect x="21.5078" y="9.3313" width="13.1963" height="16.0579" transform="rotate(-45 21.5078 9.3313)" fill="#5CF2AC"/>
</svg>
