<svg width="24" height="24" viewBox="0 0 24 24" fill="none" xmlns="http://www.w3.org/2000/svg">
<path fill-rule="evenodd" clip-rule="evenodd" d="M20.1566 2.71324C20.4099 2.61505 20.6851 2.58748 20.9528 2.63348C21.2205 2.67948 21.4708 2.79733 21.6767 2.97443C21.8827 3.15154 22.0367 3.38126 22.1224 3.63907C22.208 3.89688 22.222 4.17309 22.1629 4.43824L22.1619 4.44244L18.6369 19.8362C18.5787 20.0898 18.4554 20.3242 18.2794 20.5158C18.1034 20.7074 17.8805 20.8499 17.6328 20.9293C17.385 21.0088 17.1209 21.0224 16.8663 20.9689C16.6122 20.9155 16.3763 20.797 16.1817 20.6251L16.1806 20.6241L7.90498 13.3427L3.10508 12.3791L3.10199 12.3785C1.66028 12.0827 1.43873 10.0633 2.84779 9.51111L20.1535 2.71444L20.1566 2.71324ZM3.39981 10.9058L3.40027 10.9084L3.40259 10.9089L3.40341 10.9091L8.39719 11.9116C8.52624 11.9375 8.64619 11.9969 8.745 12.0838L17.1731 19.4995L17.1748 19.501L20.6988 4.11182L3.39981 10.9058Z" fill="black"/>
<path fill-rule="evenodd" clip-rule="evenodd" d="M21.6171 2.99213C21.8596 3.32792 21.784 3.79674 21.4482 4.03927L8.68882 13.2549C8.35303 13.4974 7.88422 13.4218 7.64169 13.086C7.39916 12.7502 7.47477 12.2814 7.81055 12.0389L20.5699 2.82327C20.9057 2.58074 21.3745 2.65635 21.6171 2.99213Z" fill="black"/>
<path fill-rule="evenodd" clip-rule="evenodd" d="M8.24963 11.8969C8.66385 11.8969 8.99963 12.2327 8.99963 12.6469L8.99963 18.7488L9.00366 18.7447L11.9287 15.8197C12.2216 15.5268 12.6964 15.5268 12.9893 15.8197C13.2822 16.1126 13.2822 16.5875 12.9893 16.8804L10.066 19.8037C9.85767 20.0143 9.59159 20.1585 9.30133 20.2181C9.00997 20.278 8.7074 20.2498 8.43208 20.1373C8.15675 20.0247 7.9211 19.8329 7.75507 19.5861C7.58904 19.3393 7.50013 19.0487 7.49963 18.7513L7.49963 12.6469C7.49963 12.2327 7.83542 11.8969 8.24963 11.8969Z" fill="black"/>
</svg>
