<svg width="24" height="24" viewBox="0 0 24 24" fill="none" xmlns="http://www.w3.org/2000/svg">
<path d="M20.3837 7.02687C17.6428 2.40198 11.6498 0.869418 7.02584 3.61076C2.49567 6.29578 0.933384 12.1022 3.44806 16.6858L2.65331 19.4929C2.57355 19.7669 2.57355 20.056 2.65331 20.33C2.88413 21.1202 3.71454 21.5744 4.49803 21.3455L7.31015 20.5487C8.77017 21.3492 10.3831 21.7499 11.9961 21.7499C13.7151 21.7499 15.4341 21.2957 16.9673 20.3863C19.207 19.0583 20.7965 16.9374 21.4411 14.4137C22.0867 11.8901 21.7104 9.26705 20.3827 7.02593L20.3837 7.02687ZM19.9877 14.0421C19.4416 16.1772 18.0979 17.9716 16.2025 19.0949C13.609 20.6322 10.3859 20.6322 7.79151 19.0949C7.67422 19.0255 7.54191 18.9898 7.40867 18.9898C7.34018 18.9898 7.27168 18.9992 7.20412 19.018L4.09925 19.8974L4.97845 16.7919C5.03475 16.5939 5.0066 16.3818 4.90151 16.2044C2.58294 12.2918 3.87875 7.22114 7.79151 4.90212C11.7033 2.58311 16.773 3.87916 19.0916 7.79268C20.2148 9.68843 20.5328 11.908 19.9867 14.0421H19.9877Z" fill="black"/>
<path d="M16.9269 13.4002L15.0099 12.3012C14.5408 12.0375 13.9618 12.045 13.4974 12.3209L12.3799 12.9901C11.8084 12.6606 11.3346 12.1867 11.0052 11.6152L11.6752 10.4955C11.9501 10.0329 11.9567 9.45381 11.6902 8.97799L10.5942 7.06722C10.3465 6.62519 9.87738 6.35209 9.37819 6.35772C7.52221 6.35772 6.00684 7.86776 6.00027 9.7241V9.76633C6.0059 11.9699 6.86915 14.0393 8.4305 15.5934C9.98716 17.1429 12.0524 17.995 14.2471 17.995C14.2555 17.995 14.264 17.995 14.2715 17.995C16.119 17.9819 17.6278 16.4672 17.6344 14.6221C17.6382 14.1153 17.367 13.6479 16.925 13.4002H16.9269ZM14.264 16.4934H14.249C12.453 16.4934 10.7641 15.7961 9.49079 14.5292C8.21375 13.2575 7.5072 11.5654 7.50251 9.76164V9.72973C7.50626 8.71991 8.31321 7.89497 9.32002 7.86025L10.3859 9.71846L10.3869 9.72597L9.50486 11.1994C9.37913 11.4096 9.36318 11.6687 9.46452 11.893C9.99185 13.067 10.9292 14.0036 12.1031 14.532C12.3273 14.6324 12.5863 14.6174 12.7965 14.4916L14.2706 13.6076L16.135 14.6765C16.0984 15.677 15.2727 16.4859 14.2649 16.4944L14.264 16.4934Z" fill="black"/>
</svg>
