<svg width="21" height="9" viewBox="0 0 21 9" fill="none" xmlns="http://www.w3.org/2000/svg">
<path d="M1 4.00049C0.723858 4.00049 0.5 4.22435 0.5 4.50049C0.5 4.77663 0.723858 5.00049 1 5.00049L1 4.00049ZM20.8536 4.85404C21.0488 4.65878 21.0488 4.3422 20.8536 4.14693L17.6716 0.964953C17.4763 0.769691 17.1597 0.769691 16.9645 0.964953C16.7692 1.16022 16.7692 1.4768 16.9645 1.67206L19.7929 4.50049L16.9645 7.32891C16.7692 7.52418 16.7692 7.84076 16.9645 8.03602C17.1597 8.23128 17.4763 8.23128 17.6716 8.03602L20.8536 4.85404ZM1 5.00049L20.5 5.00049L20.5 4.00049L1 4.00049L1 5.00049Z" fill="#282828"/>
</svg>
