<svg width="42" height="8" viewBox="0 0 42 8" fill="none" xmlns="http://www.w3.org/2000/svg">
<path d="M1 3.50049C0.723858 3.50049 0.5 3.72435 0.5 4.00049C0.5 4.27663 0.723858 4.50049 1 4.50049V3.50049ZM41.3536 4.35404C41.5488 4.15878 41.5488 3.8422 41.3536 3.64693L38.1716 0.464954C37.9763 0.269692 37.6597 0.269692 37.4645 0.464954C37.2692 0.660217 37.2692 0.976799 37.4645 1.17206L40.2929 4.00049L37.4645 6.82892C37.2692 7.02418 37.2692 7.34076 37.4645 7.53602C37.6597 7.73128 37.9763 7.73128 38.1716 7.53602L41.3536 4.35404ZM1 4.50049H41V3.50049H1V4.50049Z" fill="black"/>
</svg>
