<svg width="24" height="25" viewBox="0 0 24 25" fill="none" xmlns="http://www.w3.org/2000/svg">
<path fill-rule="evenodd" clip-rule="evenodd" d="M13.8781 3.46753C14.5914 2.82118 15.526 2.4739 16.4883 2.4976C17.4506 2.52129 18.367 2.91414 19.0477 3.59481C19.7283 4.27548 20.1212 5.19184 20.1449 6.15416C20.1686 7.11648 19.8213 8.05106 19.1749 8.7644C19.1679 8.77223 19.1606 8.7799 19.1532 8.78742L9.84381 18.228C9.83394 18.2381 9.82379 18.2478 9.81337 18.2572C9.38536 18.645 8.82462 18.8534 8.24722 18.8392C7.66983 18.825 7.12002 18.5893 6.71161 18.1809C6.30321 17.7725 6.0675 17.2226 6.05329 16.6452C6.03907 16.0679 6.24744 15.5071 6.63525 15.0791C6.64211 15.0715 6.64913 15.0641 6.6563 15.0568L14.4657 7.11617C14.7561 6.82085 15.231 6.81689 15.5263 7.10733C15.8216 7.39778 15.8256 7.87263 15.5351 8.16796L7.73837 16.0958C7.61453 16.2372 7.5482 16.4201 7.55283 16.6083C7.55757 16.8008 7.63614 16.9841 7.77227 17.1202C7.90841 17.2563 8.09168 17.3349 8.28414 17.3396C8.47078 17.3442 8.6522 17.2791 8.79311 17.1572L18.0732 7.74629C18.4547 7.3197 18.6594 6.76357 18.6453 6.19108C18.6311 5.61369 18.3954 5.06387 17.987 4.65547C17.5786 4.24707 17.0288 4.01136 16.4514 3.99714C15.8805 3.98309 15.3259 4.18661 14.8998 4.56602L5.60262 13.9943C4.90039 14.6965 4.50586 15.649 4.50586 16.6421C4.50586 17.6352 4.90037 18.5876 5.60261 19.2899C6.30485 19.9921 7.25729 20.3866 8.25041 20.3866C9.24352 20.3866 10.196 19.9921 10.8982 19.2899L18.5957 11.6111C18.889 11.3186 19.3638 11.3191 19.6564 11.6124C19.9489 11.9056 19.9483 12.3805 19.6551 12.673L11.9589 20.3505C10.9753 21.3341 9.64135 21.8866 8.25041 21.8866C6.85947 21.8866 5.5255 21.3341 4.54195 20.3505C3.55841 19.367 3.00586 18.033 3.00586 16.6421C3.00586 15.252 3.55768 13.9189 4.54001 12.9356L13.8476 3.49671C13.8575 3.4867 13.8676 3.47697 13.8781 3.46753Z" fill="black"/>
</svg>
